<svg xmlns="http://www.w3.org/2000/svg" fill="currentColor" viewBox="0 0 24 24">
  <path d="M12 .5C5.648.5.5 5.648.5 12c0 5.092 3.292 9.396 7.862 10.924.575.105.786-.248.786-.554 0-.273-.01-1.16-.016-2.105-3.2.696-3.878-1.54-3.878-1.54-.523-1.33-1.278-1.684-1.278-1.684-1.046-.714.08-.699.08-.699 1.157.082 1.767 1.188 1.767 1.188 1.028 1.762 2.7 1.253 3.357.958.104-.744.402-1.254.73-1.543-2.555-.291-5.244-1.277-5.244-5.687 0-1.256.447-2.282 1.181-3.087-.118-.29-.512-1.459.112-3.042 0 0 .964-.309 3.16 1.18.916-.254 1.9-.38 2.878-.384.977.004 1.961.13 2.88.384 2.193-1.49 3.156-1.18 3.156-1.18.627 1.583.233 2.752.114 3.042.737.805 1.18 1.83 1.18 3.087 0 4.421-2.694 5.392-5.26 5.678.412.354.78 1.05.78 2.115 0 1.526-.014 2.758-.014 3.132 0 .308.208.666.794.552C20.713 21.394 24 17.09 24 12c0-6.352-5.148-11.5-12-11.5z" />
</svg>
