<?xml version="1.0" encoding="iso-8859-1"?>
<!-- Uploaded to: SVG Repo, www.svgrepo.com, Generator: SVG Repo Mixer Tools -->
<!DOCTYPE svg PUBLIC "-//W3C//DTD SVG 1.1//EN" "http://www.w3.org/Graphics/SVG/1.1/DTD/svg11.dtd">
<svg fill="#000000" height="800px" width="800px" version="1.1" id="Capa_1" xmlns="http://www.w3.org/2000/svg" xmlns:xlink="http://www.w3.org/1999/xlink" 
	 viewBox="0 0 203.769 203.769" xml:space="preserve">
<g>
	<path d="M197.556,100.522c4.089-1.333,6.665-5.373,6.146-9.643c-0.519-4.27-3.986-7.576-8.275-7.891l-20.379-1.497
		c-1.076-3.611-2.41-7.11-3.985-10.477l14.27-14.643c3.002-3.08,3.405-7.854,0.961-11.394c-2.444-3.54-7.05-4.857-10.994-3.142
		l-18.783,8.164c-2.603-2.67-5.396-5.151-8.362-7.419l5.838-19.622c1.227-4.122-0.635-8.537-4.444-10.535
		c-3.809-1.998-8.499-1.022-11.195,2.327l-12.81,15.924c-3.524-1.152-7.159-2.051-10.886-2.682L110.715,7.94
		c-0.83-4.221-4.53-7.264-8.831-7.264S93.883,3.72,93.053,7.94l-3.943,20.055c-3.727,0.63-7.362,1.53-10.886,2.682l-12.81-15.924
		c-2.696-3.352-7.387-4.327-11.195-2.327c-3.809,1.998-5.67,6.413-4.444,10.535l5.838,19.622c-2.967,2.268-5.76,4.75-8.362,7.419
		l-18.783-8.164c-3.944-1.714-8.551-0.398-10.994,3.142c-2.443,3.539-2.041,8.313,0.961,11.394l14.27,14.643
		c-1.575,3.367-2.909,6.866-3.985,10.477L8.341,82.989c-4.29,0.314-7.757,3.621-8.275,7.891c-0.518,4.27,2.057,8.31,6.146,9.643
		l19.425,6.329c0.177,3.791,0.638,7.508,1.351,11.136L9.644,128.78c-3.652,2.272-5.186,6.812-3.66,10.833
		c1.524,4.021,5.686,6.401,9.923,5.682l20.171-3.428c1.9,3.225,4.027,6.298,6.365,9.198l-10.366,17.657
		c-2.178,3.71-1.426,8.441,1.793,11.293c3.221,2.853,8.008,3.027,11.427,0.419l16.268-12.411c3.157,1.972,6.466,3.72,9.908,5.221
		l-0.971,20.419c-0.205,4.297,2.66,8.137,6.836,9.166c4.175,1.031,8.497-1.039,10.313-4.939l8.632-18.536
		c1.852,0.135,3.716,0.228,5.602,0.228s3.75-0.092,5.602-0.228l8.632,18.536c1.503,3.229,4.723,5.202,8.156,5.202
		c0.714,0,1.438-0.085,2.156-0.263c4.176-1.029,7.041-4.869,6.836-9.166l-0.971-20.419c3.442-1.501,6.751-3.249,9.908-5.221
		l16.268,12.411c3.418,2.607,8.207,2.434,11.427-0.419c3.219-2.852,3.971-7.583,1.793-11.293l-10.366-17.657
		c2.338-2.9,4.465-5.974,6.365-9.198l20.171,3.428c4.242,0.723,8.398-1.66,9.923-5.682c1.525-4.021-0.008-8.561-3.66-10.833
		l-17.345-10.793c0.713-3.628,1.174-7.345,1.351-11.136L197.556,100.522z M160.223,103.243c0,29.107-21.429,53.301-49.338,57.642
		V45.601C138.794,49.942,160.223,74.136,160.223,103.243z M43.546,103.243c0-29.107,21.429-53.301,49.338-57.642v115.283
		C64.975,156.544,43.546,132.35,43.546,103.243z"/>
</g>
</svg>